<svg width="75" height="75" viewBox="0 0 75 75" fill="none" xmlns="http://www.w3.org/2000/svg">
<path d="M10.972 11.3229C-3.65734 25.8398 -3.65734 49.3762 10.972 63.8894C25.6033 78.4063 49.325 78.4063 63.9543 63.8894C78.5856 49.3762 78.5856 25.8398 63.9543 11.3229C56.6396 4.06535 47.0528 0.437523 37.4641 0.437523C27.8754 0.437523 18.2867 4.06535 10.972 11.3229Z" fill="#313132"/>
<path d="M35.8407 33.807L35.9737 25.4176C35.9812 24.9902 35.6964 24.6147 35.2806 24.5051C34.8666 24.3954 34.4283 24.5794 34.2204 24.9511L30.7344 31.1921C23.9068 28.579 16.8693 29.2443 12.4449 33.6305C5.79333 40.2356 7.58969 52.7324 16.4647 61.5381C25.3416 70.34 37.9367 72.1261 44.5883 65.5265C51.2511 58.9194 49.451 46.4227 40.5704 37.617C39.085 36.1413 37.4909 34.8812 35.8407 33.807Z" fill="white"/>
<path d="M66.6234 20.0606C66.3312 19.6369 65.7543 19.5644 65.3684 19.9101C61.8225 23.064 58.9491 27.6416 57.4712 33.1056C56.928 35.1221 56.6133 37.1293 56.5009 39.0863L49.1244 43.1584C48.7479 43.3628 48.5606 43.7977 48.6748 44.2103C48.7142 44.372 48.8022 44.5132 48.9165 44.6266C49.0925 44.8013 49.3342 44.9017 49.5927 44.898L56.7744 44.7734C57.6903 50.572 60.545 55.4135 64.7971 57.9039C65.2448 58.1641 65.8817 58.0191 66.1851 57.6028C74.3352 46.4591 74.4888 31.3437 66.6234 20.0606Z" fill="white"/>
<path d="M45.0856 20.8392C47.118 20.2965 49.0268 19.5661 50.7838 18.6833L58.0329 22.9895C58.4019 23.2088 58.874 23.1512 59.1774 22.8501C59.4827 22.5453 59.5371 22.0788 59.316 21.7145L55.6128 15.6C56.6243 14.7841 57.5571 13.9162 58.3851 12.9999C58.7316 12.617 58.6586 12.0483 58.2333 11.7547C46.8633 3.9526 31.627 4.105 20.3937 12.1933C19.9741 12.4944 19.828 13.1244 20.0902 13.5649C24.1737 20.4284 34.5098 23.6455 45.0856 20.8392Z" fill="white"/>
</svg>
