<svg width="341" height="75" viewBox="0 0 341 75" fill="none" xmlns="http://www.w3.org/2000/svg">
<path d="M11.5668 10.9711C-3.06262 25.6023 -3.06262 49.324 11.5668 63.9515C26.198 78.5827 49.9197 78.5827 64.5491 63.9515C79.1803 49.324 79.1803 25.6023 64.5491 10.9711C57.2344 3.65639 47.6476 0 38.0589 0C28.4702 0 18.8814 3.65639 11.5668 10.9711Z" fill="#222530"/>
<path d="M36.4354 33.6322L36.5684 25.1768C36.5759 24.746 36.2912 24.3676 35.8753 24.2571C35.4614 24.1466 35.023 24.332 34.8151 24.7066L31.3292 30.9967C24.5015 28.363 17.464 29.0336 13.0396 33.4543C6.38806 40.1115 8.18442 52.7066 17.0594 61.5816C25.9363 70.4529 38.5315 72.253 45.1831 65.6014C51.8459 58.9424 50.0458 46.3472 41.1651 37.4722C39.6797 35.9849 38.0857 34.7149 36.4354 33.6322Z" fill="white"/>
<path d="M67.2181 19.7776C66.9259 19.3506 66.3489 19.2775 65.9631 19.6259C62.4172 22.8047 59.5438 27.4183 58.0658 32.9253C57.5226 34.9577 57.2079 36.9807 57.0955 38.9532L49.719 43.0573C49.3425 43.2633 49.1552 43.7016 49.2695 44.1175C49.3088 44.2804 49.3969 44.4228 49.5111 44.5371C49.6872 44.7131 49.9288 44.8143 50.1873 44.8105L57.369 44.685C58.285 50.5293 61.1397 55.4089 65.3918 57.9189C65.8394 58.1811 66.4763 58.035 66.7798 57.6155C74.9299 46.384 75.0835 31.1496 67.2181 19.7776Z" fill="white"/>
<path d="M45.6803 20.5623C47.7127 20.0153 49.6214 19.2792 51.3785 18.3894L58.6276 22.7295C58.9966 22.9506 59.4686 22.8925 59.7721 22.5891C60.0774 22.2819 60.1317 21.8117 59.9107 21.4446L56.2075 15.2819C57.219 14.4596 58.1518 13.5848 58.9797 12.6613C59.3263 12.2755 59.2532 11.7023 58.828 11.4063C47.4579 3.54278 32.2217 3.69638 20.9883 11.8484C20.5687 12.1518 20.4226 12.7868 20.6849 13.2308C24.7684 20.1483 35.1045 23.3908 45.6803 20.5623Z" fill="white"/>
<path d="M113.623 26.1984C114.941 26.1984 116.116 26.5074 117.146 27.1256C118.176 27.7231 118.98 28.5576 119.557 29.6291C120.134 30.6799 120.422 31.8647 120.422 33.1834V33.5852C120.422 34.9039 120.134 36.0989 119.557 37.1704C118.98 38.2418 118.176 39.0866 117.146 39.7048C116.116 40.3023 114.941 40.6011 113.623 40.6011H108.523V47.4625H101.692V26.1984H113.623ZM108.523 35.625H111.335C112.057 35.625 112.592 35.4396 112.943 35.0687C113.313 34.6978 113.499 34.193 113.499 33.5543V33.307C113.499 32.6476 113.313 32.1428 112.943 31.7926C112.592 31.4217 112.057 31.2362 111.335 31.2362H108.523V35.625ZM148.394 32.7198C148.394 34.0179 148.044 35.1923 147.344 36.2432C146.643 37.294 145.623 38.0667 144.284 38.5612L149.013 47.4625H141.348L137.577 39.7048H135.043V47.4625H128.212V26.1984H141.224C142.749 26.1984 144.047 26.4971 145.118 27.0947C146.21 27.6716 147.024 28.4649 147.56 29.4745C148.116 30.4635 148.394 31.5453 148.394 32.7198ZM141.44 32.9979C141.44 32.4416 141.255 31.978 140.884 31.6071C140.513 31.2362 140.06 31.0508 139.524 31.0508H135.043V34.976H139.524C140.06 34.976 140.513 34.7905 140.884 34.4197C141.255 34.0282 141.44 33.5543 141.44 32.9979ZM166.539 25.8275C170.207 25.8275 173.04 26.765 175.039 28.64C177.038 30.5151 178.037 33.2452 178.037 36.8304C178.037 40.4156 177.038 43.1458 175.039 45.0208C173.04 46.8958 170.207 47.8333 166.539 47.8333C162.872 47.8333 160.039 46.9061 158.04 45.0517C156.062 43.1767 155.073 40.4362 155.073 36.8304C155.073 33.2246 156.062 30.4945 158.04 28.64C160.039 26.765 162.872 25.8275 166.539 25.8275ZM166.539 30.9272C165.076 30.9272 163.964 31.3702 163.201 32.2562C162.439 33.1422 162.058 34.3372 162.058 35.8414V37.8194C162.058 39.3236 162.439 40.5187 163.201 41.4047C163.964 42.2907 165.076 42.7337 166.539 42.7337C168.002 42.7337 169.115 42.2907 169.877 41.4047C170.66 40.5187 171.052 39.3236 171.052 37.8194V35.8414C171.052 34.3372 170.66 33.1422 169.877 32.2562C169.115 31.3702 168.002 30.9272 166.539 30.9272ZM194.862 25.8275C197.582 25.8275 199.817 26.3838 201.569 27.4965C203.32 28.5885 204.216 30.2163 204.258 32.3798V32.7507H197.86V32.627C197.86 32.0089 197.633 31.4938 197.18 31.0817C196.727 30.6696 196.036 30.4635 195.109 30.4635C194.202 30.4635 193.502 30.5975 193.007 30.8653C192.533 31.1332 192.297 31.4629 192.297 31.8544C192.297 32.4107 192.626 32.8228 193.286 33.0907C193.945 33.3585 195.006 33.6367 196.469 33.9251C198.179 34.2754 199.58 34.6463 200.672 35.0378C201.785 35.4087 202.753 36.0268 203.578 36.8922C204.402 37.7576 204.824 38.9321 204.845 40.4156C204.845 42.9294 203.99 44.7941 202.28 46.0098C200.59 47.2255 198.323 47.8333 195.48 47.8333C192.163 47.8333 189.577 47.277 187.722 46.1644C185.888 45.0517 184.972 43.084 184.972 40.2611H191.431C191.431 41.3326 191.709 42.0537 192.266 42.4246C192.822 42.7749 193.687 42.95 194.862 42.95C195.727 42.95 196.438 42.8573 196.994 42.6719C197.571 42.4864 197.86 42.1052 197.86 41.5283C197.86 41.0132 197.54 40.632 196.902 40.3847C196.284 40.1169 195.264 39.8387 193.842 39.5502C192.111 39.1794 190.679 38.7982 189.546 38.4067C188.413 37.9946 187.424 37.3249 186.579 36.3977C185.734 35.4705 185.312 34.2136 185.312 32.627C185.312 30.2987 186.208 28.5885 188 27.4965C189.814 26.3838 192.101 25.8275 194.862 25.8275ZM224.689 31.638V47.4625H217.858V31.638H210.873V26.1984H231.643V31.638H224.689ZM259.151 32.7198C259.151 34.0179 258.801 35.1923 258.1 36.2432C257.4 37.294 256.38 38.0667 255.041 38.5612L259.769 47.4625H252.104L248.334 39.7048H245.799V47.4625H238.969V26.1984H251.981C253.506 26.1984 254.804 26.4971 255.875 27.0947C256.967 27.6716 257.781 28.4649 258.317 29.4745C258.873 30.4635 259.151 31.5453 259.151 32.7198ZM252.197 32.9979C252.197 32.4416 252.012 31.978 251.641 31.6071C251.27 31.2362 250.817 31.0508 250.281 31.0508H245.799V34.976H250.281C250.817 34.976 251.27 34.7905 251.641 34.4197C252.012 34.0282 252.197 33.5543 252.197 32.9979ZM267.239 26.1984H285.629V31.298H274.07V34.2342H283.96V39.1175H274.07V42.3628H285.845V47.4625H267.239V26.1984ZM293.759 26.1984H312.149V31.298H300.589V34.2342H310.48V39.1175H300.589V42.3628H312.365V47.4625H293.759V26.1984ZM332.518 31.638V47.4625H325.687V31.638H318.702V26.1984H339.472V31.638H332.518Z" fill="white"/>
</svg>
